<svg xmlns="http://www.w3.org/2000/svg" viewBox="0 0 100 100"><rect width="100" height="100" rx="22" fill="#16302A"/><g transform="translate(0.00,0.00) scale(0.5)"><path id="pt100100100" d="M100,100 C81.0,82.0 83.0,46.0 100,28.0 C117.0,46.0 119.0,82.0 100,100 Z" fill="#F7B733"/><g><use href="#pt100100100" transform="rotate(0 100 100)"/><use href="#pt100100100" transform="rotate(60 100 100)"/><use href="#pt100100100" transform="rotate(120 100 100)"/><use href="#pt100100100" transform="rotate(180 100 100)"/><use href="#pt100100100" transform="rotate(240 100 100)"/><use href="#pt100100100" transform="rotate(300 100 100)"/></g><circle cx="120.00" cy="100.00" r="3.40" fill="#EF8E2C"/><circle cx="117.32" cy="110.00" r="3.40" fill="#EF8E2C"/><circle cx="110.00" cy="117.32" r="3.40" fill="#EF8E2C"/><circle cx="100.00" cy="120.00" r="3.40" fill="#EF8E2C"/><circle cx="90.00" cy="117.32" r="3.40" fill="#EF8E2C"/><circle cx="82.68" cy="110.00" r="3.40" fill="#EF8E2C"/><circle cx="80.00" cy="100.00" r="3.40" fill="#EF8E2C"/><circle cx="82.68" cy="90.00" r="3.40" fill="#EF8E2C"/><circle cx="90.00" cy="82.68" r="3.40" fill="#EF8E2C"/><circle cx="100.00" cy="80.00" r="3.40" fill="#EF8E2C"/><circle cx="110.00" cy="82.68" r="3.40" fill="#EF8E2C"/><circle cx="117.32" cy="90.00" r="3.40" fill="#EF8E2C"/><circle cx="100" cy="100" r="19.0" fill="#EF8E2C"/><circle cx="100" cy="100" r="19.0" fill="none" stroke="#FFFFFF" stroke-width="2.6"/><circle cx="100" cy="100" r="9.5" fill="#FFD66B"/></g></svg>